<?xml version="1.0" encoding="UTF-8"?>
<svg id="Layer_1" data-name="Layer 1" xmlns="http://www.w3.org/2000/svg" xmlns:xlink="http://www.w3.org/1999/xlink" viewBox="0 0 145.61 44.47">
  <defs>
    <style>
      .cls-1 {
        filter: url(#drop-shadow-48);
      }

      .cls-1, .cls-2 {
        fill: none;
        stroke: #fff;
        stroke-miterlimit: 10;
        stroke-width: 2px;
      }

      .cls-3 {
        fill: #fff;
      }

      .cls-4 {
        filter: url(#drop-shadow-47);
        opacity: .15;
      }

      .cls-2 {
        stroke-linecap: round;
      }
    </style>
    <filter id="drop-shadow-47" x="4.22" y="3.28" width="136.47" height="33.44" filterUnits="userSpaceOnUse">
      <feOffset dx="-5" dy="5"/>
      <feGaussianBlur result="blur" stdDeviation="5"/>
      <feFlood flood-color="#000" flood-opacity=".45"/>
      <feComposite in2="blur" operator="in"/>
      <feComposite in="SourceGraphic"/>
    </filter>
    <filter id="drop-shadow-48" x="3.22" y="2.28" width="138.47" height="35.44" filterUnits="userSpaceOnUse">
      <feOffset dx="-5" dy="5"/>
      <feGaussianBlur result="blur-2" stdDeviation="5"/>
      <feFlood flood-color="#000" flood-opacity=".45"/>
      <feComposite in2="blur-2" operator="in"/>
      <feComposite in="SourceGraphic"/>
    </filter>
  </defs>
  <g>
    <rect class="cls-4" x="4.22" y="3.28" width="136.47" height="33.44" rx="16.72" ry="16.72"/>
    <g>
      <path class="cls-3" d="M32.67,10.89v15.84h-2.1v-15.84h2.1Z"/>
      <path class="cls-3" d="M45.17,17.04c-.17-.54-.43-.98-.76-1.32s-.73-.59-1.19-.75-.99-.23-1.57-.23c-.71,0-1.36.14-1.94.42s-1.09.67-1.51,1.18c-.02.03-.04.07-.07.1l-.06-1.48h-1.9v11.77h2.01v-8.38c.13-.26.27-.51.45-.73.29-.37.65-.66,1.06-.87.41-.21.87-.32,1.37-.32s.94.08,1.28.26c.35.17.61.44.79.82.18.37.27.87.27,1.49v7.74h2.02v-7.71c0-.78-.09-1.43-.26-1.97Z"/>
      <path class="cls-3" d="M48.49,11.84c0-.33.1-.6.3-.83.2-.22.5-.34.89-.34s.68.11.89.34c.21.23.31.5.31.83s-.1.58-.31.8c-.21.22-.5.33-.89.33s-.69-.11-.89-.33c-.2-.22-.3-.49-.3-.8ZM50.66,14.96v11.77h-2.02v-11.77h2.02Z"/>
      <path class="cls-3" d="M58.61,25.3c.48,0,.92-.1,1.33-.29s.74-.47,1-.81c.26-.34.41-.74.45-1.18h1.91c-.04.7-.27,1.34-.7,1.94-.43.6-1,1.08-1.69,1.45-.7.37-1.46.55-2.29.55-.88,0-1.66-.16-2.31-.47-.66-.31-1.2-.74-1.63-1.28s-.75-1.17-.97-1.88c-.21-.71-.32-1.46-.32-2.25v-.46c0-.79.11-1.54.32-2.25.21-.71.54-1.33.97-1.88s.98-.97,1.63-1.28,1.43-.47,2.31-.47,1.73.19,2.42.56,1.23.88,1.63,1.52c.39.64.61,1.37.65,2.18h-1.91c-.04-.49-.17-.92-.41-1.32-.24-.39-.55-.71-.96-.94-.4-.24-.87-.35-1.41-.35-.62,0-1.13.12-1.55.36s-.75.57-.99.98c-.24.41-.42.86-.52,1.36-.11.5-.16,1-.16,1.52v.46c0,.51.05,1.02.15,1.52s.27.95.52,1.36.57.73.99.97c.42.24.94.36,1.56.36Z"/>
      <path class="cls-3" d="M65.57,11.84c0-.33.1-.6.3-.83.2-.22.5-.34.89-.34s.68.11.89.34c.21.23.31.5.31.83s-.1.58-.31.8c-.21.22-.5.33-.89.33s-.69-.11-.89-.33c-.2-.22-.3-.49-.3-.8ZM67.75,14.96v11.77h-2.02v-11.77h2.02Z"/>
      <path class="cls-3" d="M78.27,19.6l.02,1.41h-2.03c-.57,0-1.08.05-1.53.14-.45.09-.83.23-1.13.41s-.54.41-.7.68c-.16.27-.24.59-.24.95s.08.71.25,1.01c.17.3.42.55.76.72s.75.27,1.25.27c.62,0,1.16-.13,1.63-.39.47-.26.85-.58,1.13-.96.28-.38.43-.74.45-1.1l.86.97c-.05.3-.19.64-.41,1.01-.22.37-.52.72-.9,1.06-.37.34-.82.62-1.33.84-.51.22-1.09.33-1.72.33-.8,0-1.5-.16-2.09-.47-.6-.31-1.06-.73-1.39-1.26s-.5-1.12-.5-1.77.12-1.19.37-1.67c.25-.48.6-.88,1.07-1.21s1.02-.57,1.68-.73c.65-.17,1.38-.25,2.19-.25h2.34ZM77.92,24.72v-6.06c0-.46-.09-.87-.28-1.21-.19-.34-.46-.61-.83-.8-.37-.19-.83-.28-1.37-.28-.51,0-.95.09-1.33.26-.38.17-.68.4-.89.69-.21.28-.32.59-.32.91h-2.01c0-.42.11-.84.33-1.25.22-.41.53-.79.94-1.13.41-.34.9-.61,1.48-.8.58-.2,1.22-.3,1.93-.3.86,0,1.61.15,2.27.44s1.17.73,1.54,1.31c.37.58.56,1.31.56,2.19v5.48c0,.39.03.81.1,1.25.07.44.17.82.31,1.14v.17h-2.1c-.1-.23-.18-.54-.24-.93-.06-.39-.09-.75-.09-1.08Z"/>
      <path class="cls-3" d="M85.11,16.81v9.92h-2.01v-11.77h1.96l.05,1.85ZM88.79,14.9v1.87c-.18-.04-.33-.06-.48-.07-.15-.01-.32-.02-.51-.02-.46,0-.87.07-1.23.22s-.66.35-.9.61c-.25.26-.44.57-.58.93-.14.36-.23.75-.28,1.18l-.57.33c0-.71.07-1.38.21-2,.14-.62.36-1.18.66-1.66.3-.48.68-.86,1.14-1.13s1.01-.41,1.65-.41c.14,0,.31.02.5.05s.32.07.39.1Z"/>
    </g>
    <polyline class="cls-2" points="123.3 16.85 116.99 23.15 110.69 16.85"/>
  </g>
  <rect class="cls-1" x="4.22" y="3.28" width="136.47" height="33.44" rx="16.72" ry="16.72"/>
</svg>