<svg width="88" height="32" viewBox="0 0 88 32" fill="none" xmlns="http://www.w3.org/2000/svg">
<g clip-path="url(#clip0_527_124)">
<rect width="88" height="32" rx="16" fill="#8C217E"/>
<path d="M25.825 12.9126L22 16.7293L18.175 12.9126L17 14.0876L22 19.0876L27 14.0876L25.825 12.9126Z" fill="white"/>
<path d="M38.8438 11.0469V21H37.1279V11.0469H38.8438ZM42.5463 15.1826V21H40.8988V13.6035H42.4506L42.5463 15.1826ZM42.2523 17.0283L41.7191 17.0215C41.7237 16.4974 41.7966 16.0166 41.9379 15.5791C42.0837 15.1416 42.2842 14.7656 42.5395 14.4512C42.7992 14.1367 43.1091 13.8952 43.4691 13.7266C43.8292 13.5534 44.2302 13.4668 44.6723 13.4668C45.0277 13.4668 45.349 13.5169 45.6361 13.6172C45.9278 13.7129 46.1762 13.8701 46.3812 14.0889C46.5909 14.3076 46.7504 14.5924 46.8598 14.9434C46.9691 15.2897 47.0238 15.7158 47.0238 16.2217V21H45.3695V16.2148C45.3695 15.8594 45.3171 15.5791 45.2123 15.374C45.112 15.1644 44.9639 15.0163 44.768 14.9297C44.5766 14.8385 44.3373 14.793 44.0502 14.793C43.7676 14.793 43.5147 14.8522 43.2914 14.9707C43.0681 15.0892 42.879 15.251 42.724 15.4561C42.5736 15.6611 42.4574 15.8981 42.3754 16.167C42.2934 16.4359 42.2523 16.723 42.2523 17.0283ZM50.5691 13.6035V21H48.9148V13.6035H50.5691ZM48.8055 11.6621C48.8055 11.4115 48.8875 11.2041 49.0516 11.04C49.2202 10.8714 49.4526 10.7871 49.7488 10.7871C50.0405 10.7871 50.2706 10.8714 50.4393 11.04C50.6079 11.2041 50.6922 11.4115 50.6922 11.6621C50.6922 11.9082 50.6079 12.1133 50.4393 12.2773C50.2706 12.4414 50.0405 12.5234 49.7488 12.5234C49.4526 12.5234 49.2202 12.4414 49.0516 12.2773C48.8875 12.1133 48.8055 11.9082 48.8055 11.6621ZM55.4953 19.8242C55.7642 19.8242 56.0057 19.7718 56.2199 19.667C56.4387 19.5576 56.6141 19.4072 56.7463 19.2158C56.883 19.0244 56.9582 18.8034 56.9719 18.5527H58.5236C58.5145 19.0312 58.3732 19.4665 58.0998 19.8584C57.8264 20.2503 57.4641 20.5625 57.0129 20.7949C56.5617 21.0228 56.0627 21.1367 55.5158 21.1367C54.9507 21.1367 54.4585 21.041 54.0393 20.8496C53.62 20.6536 53.2714 20.3848 52.9934 20.043C52.7154 19.7012 52.5057 19.307 52.3645 18.8604C52.2277 18.4137 52.1594 17.9352 52.1594 17.4248V17.1855C52.1594 16.6751 52.2277 16.1966 52.3645 15.75C52.5057 15.2988 52.7154 14.9023 52.9934 14.5605C53.2714 14.2188 53.62 13.9521 54.0393 13.7607C54.4585 13.5648 54.9484 13.4668 55.509 13.4668C56.1014 13.4668 56.621 13.5853 57.0676 13.8223C57.5142 14.0547 57.8651 14.3805 58.1203 14.7998C58.3801 15.2145 58.5145 15.6976 58.5236 16.249H56.9719C56.9582 15.9756 56.8898 15.7295 56.7668 15.5107C56.6483 15.2874 56.4797 15.1097 56.2609 14.9775C56.0467 14.8454 55.7893 14.7793 55.4885 14.7793C55.1558 14.7793 54.8801 14.8477 54.6613 14.9844C54.4426 15.1165 54.2717 15.2988 54.1486 15.5312C54.0256 15.7591 53.9367 16.0166 53.882 16.3037C53.8319 16.5863 53.8068 16.8802 53.8068 17.1855V17.4248C53.8068 17.7301 53.8319 18.0264 53.882 18.3135C53.9322 18.6006 54.0188 18.8581 54.1418 19.0859C54.2694 19.3092 54.4426 19.4893 54.6613 19.626C54.8801 19.7581 55.1581 19.8242 55.4953 19.8242ZM61.652 13.6035V21H59.9977V13.6035H61.652ZM59.8883 11.6621C59.8883 11.4115 59.9703 11.2041 60.1344 11.04C60.303 10.8714 60.5354 10.7871 60.8316 10.7871C61.1233 10.7871 61.3535 10.8714 61.5221 11.04C61.6907 11.2041 61.775 11.4115 61.775 11.6621C61.775 11.9082 61.6907 12.1133 61.5221 12.2773C61.3535 12.4414 61.1233 12.5234 60.8316 12.5234C60.5354 12.5234 60.303 12.4414 60.1344 12.2773C59.9703 12.1133 59.8883 11.9082 59.8883 11.6621ZM67.7266 19.5166V15.9893C67.7266 15.7249 67.6787 15.4971 67.583 15.3057C67.4873 15.1143 67.3415 14.9661 67.1455 14.8613C66.9541 14.7565 66.7126 14.7041 66.4209 14.7041C66.152 14.7041 65.9196 14.7497 65.7236 14.8408C65.5277 14.932 65.375 15.055 65.2656 15.21C65.1562 15.3649 65.1016 15.5404 65.1016 15.7363H63.4609C63.4609 15.4447 63.5316 15.1621 63.6729 14.8887C63.8141 14.6152 64.0192 14.3714 64.2881 14.1572C64.557 13.943 64.8783 13.7744 65.252 13.6514C65.6257 13.5283 66.0449 13.4668 66.5098 13.4668C67.0658 13.4668 67.5579 13.5602 67.9863 13.7471C68.4193 13.9339 68.7588 14.2165 69.0049 14.5947C69.2555 14.9684 69.3809 15.4378 69.3809 16.0029V19.291C69.3809 19.6283 69.4036 19.9313 69.4492 20.2002C69.4993 20.4645 69.57 20.6947 69.6611 20.8906V21H67.9727C67.8952 20.8223 67.8337 20.5967 67.7881 20.3232C67.7471 20.0452 67.7266 19.7764 67.7266 19.5166ZM67.9658 16.502L67.9795 17.5205H66.7969C66.4915 17.5205 66.2227 17.5501 65.9902 17.6094C65.7578 17.6641 65.5641 17.7461 65.4092 17.8555C65.2542 17.9648 65.138 18.097 65.0605 18.252C64.9831 18.4069 64.9443 18.5824 64.9443 18.7783C64.9443 18.9743 64.9899 19.1543 65.0811 19.3184C65.1722 19.4779 65.3044 19.6032 65.4775 19.6943C65.6553 19.7855 65.8695 19.8311 66.1201 19.8311C66.4574 19.8311 66.7513 19.7627 67.002 19.626C67.2572 19.4847 67.4577 19.3138 67.6035 19.1133C67.7493 18.9082 67.8268 18.7145 67.8359 18.5322L68.3691 19.2637C68.3145 19.4505 68.221 19.651 68.0889 19.8652C67.9567 20.0794 67.7835 20.2845 67.5693 20.4805C67.3597 20.6719 67.1068 20.8291 66.8105 20.9521C66.5189 21.0752 66.1816 21.1367 65.7988 21.1367C65.3158 21.1367 64.8851 21.041 64.5068 20.8496C64.1286 20.6536 63.8324 20.3916 63.6182 20.0635C63.404 19.7308 63.2969 19.3548 63.2969 18.9355C63.2969 18.5436 63.3698 18.1973 63.5156 17.8965C63.666 17.5911 63.8848 17.3359 64.1719 17.1309C64.4635 16.9258 64.819 16.7708 65.2383 16.666C65.6576 16.5566 66.1361 16.502 66.6738 16.502H67.9658ZM72.8578 15.0117V21H71.2104V13.6035H72.7826L72.8578 15.0117ZM75.1205 13.5557L75.1068 15.0869C75.0066 15.0687 74.8972 15.055 74.7787 15.0459C74.6648 15.0368 74.5508 15.0322 74.4369 15.0322C74.1544 15.0322 73.906 15.0732 73.6918 15.1553C73.4776 15.2327 73.2976 15.3467 73.1518 15.4971C73.0105 15.6429 72.9011 15.8206 72.8236 16.0303C72.7462 16.2399 72.7006 16.4746 72.6869 16.7344L72.3109 16.7617C72.3109 16.2969 72.3565 15.8662 72.4477 15.4697C72.5388 15.0732 72.6755 14.7246 72.8578 14.4238C73.0447 14.123 73.2771 13.8883 73.5551 13.7197C73.8376 13.5511 74.1635 13.4668 74.5326 13.4668C74.6329 13.4668 74.74 13.4759 74.8539 13.4941C74.9724 13.5124 75.0613 13.5329 75.1205 13.5557Z" fill="white"/>
</g>
<defs>
<clipPath id="clip0_527_124">
<rect width="88" height="32" rx="16" fill="white"/>
</clipPath>
</defs>
</svg>
