<?xml version="1.0" encoding="UTF-8"?>
<svg id="Layer_1" data-name="Layer 1" xmlns="http://www.w3.org/2000/svg" xmlns:xlink="http://www.w3.org/1999/xlink" viewBox="0 0 32.37 28.26">
  <defs>
    <style>
      .cls-1 {
        fill: none;
      }

      .cls-2 {
        clip-path: url(#clippath-1);
      }

      .cls-3 {
        fill: #fff;
      }

      .cls-4 {
        clip-path: url(#clippath);
      }
    </style>
    <clipPath id="clippath">
      <rect class="cls-1" x="-1185.87" y="-563.08" width="1095" height="616.06"/>
    </clipPath>
    <clipPath id="clippath-1">
      <path class="cls-1" d="M17.02-4.56h0c11.05,0,20,8.95,20,20s-8.95,20-20,20S-2.98,26.49-2.98,15.44,5.97-4.56,17.02-4.56Z"/>
    </clipPath>
  </defs>
  <g class="cls-4">
    <image width="4000" height="2670" transform="translate(-1216.78 -765.13) scale(.31)" xlink:href="../../images/dmitry-grigoriev-yxXpjF-RrnA-unsplash.jpg"/>
  </g>
  <g class="cls-2">
    <path class="cls-3" d="M8.02,20.44h0c0-.55.45-1,1-1h16c.55,0,1,.45,1,1h0c0,.55-.45,1-1,1H9.02c-.55,0-1-.45-1-1ZM8.02,15.44h0c0-.55.45-1,1-1h16c.55,0,1,.45,1,1h0c0,.55-.45,1-1,1H9.02c-.55,0-1-.45-1-1ZM8.02,10.44h0c0-.55.45-1,1-1h16c.55,0,1,.45,1,1h0c0,.55-.45,1-1,1H9.02c-.55,0-1-.45-1-1Z"/>
  </g>
</svg>